# xmcd
#
# Track frame offsets: 
#        150
#        13488
#        26505
#        44988
#        63248
#        92913
#        105663
#        123063
#        134309
#        144738
#        156738
#        173710
#
# Disc length: 2486 seconds
#
# Revision: 2
# Processed by: cddbd v1.5.2PL0 Copyright (c) Steve Scherf et al.
# Submitted via: ExactAudioCopyFreeDBPlugin 1.0
#
DISCID=af09b40c
DTITLE=Stoppok plus Worthy - Grundblues
DYEAR=2009
DGENRE=Blues
TTITLE0=Schieber Blues
TTITLE1=Sei froh
TTITLE2=Ich arbeitete
TTITLE3=Die Antwort
TTITLE4=Zeit für ein Wunder
TTITLE5=Hey Maria
TTITLE6=Kalter Kaffee
TTITLE7=Schuften
TTITLE8=Schon schön
TTITLE9=Gute Laune Blues
TTITLE10=I turned on
TTITLE11=I'll be there
EXTD=YEAR: 2009
EXTT0=
EXTT1=
EXTT2=
EXTT3=
EXTT4=
EXTT5=
EXTT6=
EXTT7=
EXTT8=
EXTT9=
EXTT10=
EXTT11=
PLAYORDER=
